<?xml version="1.0" encoding="utf-8"?>
<!-- Generator: Adobe Illustrator 16.0.0, SVG Export Plug-In . SVG Version: 6.00 Build 0)  -->
<!DOCTYPE svg PUBLIC "-//W3C//DTD SVG 1.1//EN" "http://www.w3.org/Graphics/SVG/1.1/DTD/svg11.dtd">
<svg version="1.1" id="Layer_1" xmlns="http://www.w3.org/2000/svg" xmlns:xlink="http://www.w3.org/1999/xlink" x="0px" y="0px"
	 width="841.89px" height="595.28px" viewBox="0 0 841.89 595.28" enable-background="new 0 0 841.89 595.28" xml:space="preserve">
<g>
	<path d="M101.237,239.194H35.93c0.942,5.75,3.462,10.322,7.558,13.715c4.096,3.396,9.32,5.093,15.675,5.093
		c7.595,0,14.123-2.651,19.584-7.955l17.127,8.029c-4.271,6.047-9.383,10.518-15.34,13.417c-5.958,2.899-13.032,4.35-21.223,4.35
		c-12.709,0-23.06-4.002-31.052-12.005c-7.994-8.003-11.989-18.027-11.989-30.068c0-12.34,3.983-22.585,11.952-30.737
		c7.967-8.152,17.958-12.229,29.972-12.229c12.758,0,23.133,4.077,31.127,12.229c7.992,8.152,11.988,18.918,11.988,32.297
		L101.237,239.194z M80.907,223.212c-1.342-4.507-3.99-8.176-7.944-11c-3.953-2.825-8.54-4.237-13.762-4.237
		c-5.669,0-10.642,1.585-14.918,4.757c-2.686,1.982-5.172,5.476-7.459,10.48H80.907z"/>
	<path d="M177.491,161.663h20.329V273.76h-20.329v-8.548c-3.968,3.767-7.947,6.479-11.938,8.139
		c-3.993,1.662-8.318,2.492-12.98,2.492c-10.462,0-19.512-4.051-27.149-12.154c-7.636-8.104-11.454-18.175-11.454-30.218
		c0-12.489,3.694-22.721,11.083-30.701c7.389-7.978,16.363-11.967,26.925-11.967c4.859,0,9.42,0.917,13.685,2.75
		c4.263,1.834,8.206,4.585,11.827,8.25V161.663z M156.12,209.535c-6.284,0-11.504,2.218-15.66,6.653s-6.234,10.122-6.234,17.06
		c0,6.987,2.115,12.737,6.345,17.246c4.23,4.51,9.437,6.764,15.623,6.764c6.382,0,11.676-2.217,15.881-6.652
		c4.206-4.436,6.31-10.247,6.31-17.432c0-7.037-2.104-12.736-6.31-17.098C167.87,211.716,162.553,209.535,156.12,209.535z"/>
	<path d="M218.298,192.885h20.553v38.951c0,7.583,0.523,12.848,1.567,15.797c1.045,2.948,2.725,5.241,5.04,6.875
		c2.313,1.635,5.163,2.453,8.547,2.453c3.383,0,6.258-0.804,8.622-2.415c2.364-1.61,4.118-3.978,5.262-7.1
		c0.847-2.329,1.27-7.309,1.27-14.941v-39.621h20.329v34.268c0,14.124-1.117,23.788-3.351,28.991
		c-2.731,6.345-6.752,11.213-12.064,14.607c-5.313,3.394-12.064,5.093-20.255,5.093c-8.887,0-16.073-1.984-21.558-5.947
		c-5.486-3.964-9.346-9.489-11.58-16.578c-1.589-4.905-2.383-13.825-2.383-26.76V192.885z"/>
	<path fill="#ED1C24" d="M309.967,161.663h20.181v39.398c3.971-3.419,7.968-5.984,11.989-7.693
		c4.021-1.711,8.091-2.565,12.212-2.565c8.042,0,14.818,2.776,20.329,8.326c4.717,4.807,7.075,11.868,7.075,21.185v53.447h-20.032
		v-35.457c0-9.367-0.447-15.709-1.339-19.03c-0.894-3.32-2.421-5.798-4.58-7.434c-2.16-1.636-4.829-2.453-8.005-2.453
		c-4.122,0-7.658,1.363-10.611,4.088c-2.954,2.726-5.002,6.443-6.144,11.15c-0.596,2.429-0.893,7.979-0.893,16.65v32.484h-20.181
		V161.663z"/>
	<path fill="#ED1C24" d="M401.337,192.885h20.553v38.951c0,7.583,0.522,12.848,1.567,15.797c1.045,2.948,2.725,5.241,5.04,6.875
		c2.313,1.635,5.162,2.453,8.547,2.453c3.384,0,6.257-0.804,8.622-2.415c2.364-1.61,4.118-3.978,5.263-7.1
		c0.846-2.329,1.269-7.309,1.269-14.941v-39.621h20.329v34.268c0,14.124-1.117,23.788-3.351,28.991
		c-2.731,6.345-6.752,11.213-12.064,14.607c-5.313,3.394-12.063,5.093-20.254,5.093c-8.887,0-16.074-1.984-21.558-5.947
		c-5.486-3.964-9.346-9.489-11.58-16.578c-1.59-4.905-2.383-13.825-2.383-26.76V192.885z"/>
	<path fill="#ED1C24" d="M513.111,161.663v40.141c3.674-3.665,7.645-6.416,11.916-8.25c4.268-1.833,8.834-2.75,13.701-2.75
		c10.574,0,19.559,3.99,26.957,11.967c7.396,7.979,11.096,18.212,11.096,30.701c0,12.043-3.823,22.114-11.467,30.218
		c-7.647,8.103-16.707,12.154-27.181,12.154c-4.667,0-9.011-0.83-13.031-2.492c-4.021-1.659-8.018-4.372-11.99-8.139v8.548h-20.18
		V161.663H513.111z M534.483,209.535c-6.404,0-11.717,2.181-15.936,6.541c-4.22,4.362-6.33,10.062-6.33,17.098
		c0,7.186,2.11,12.997,6.33,17.432c4.219,4.435,9.532,6.652,15.936,6.652c6.205,0,11.431-2.254,15.675-6.764
		c4.244-4.509,6.367-10.258,6.367-17.246c0-6.938-2.084-12.625-6.255-17.06C546.101,211.753,540.837,209.535,534.483,209.535z"/>
	<path fill="#ED1C24" d="M604.706,252.575c3.226,0,5.981,1.128,8.266,3.382c2.283,2.255,3.425,4.993,3.425,8.213
		c0,3.222-1.142,5.973-3.425,8.252c-2.284,2.278-5.04,3.419-8.266,3.419c-3.228,0-5.984-1.142-8.267-3.419
		c-2.284-2.28-3.425-5.03-3.425-8.252c0-3.221,1.141-5.958,3.425-8.213C598.722,253.703,601.478,252.575,604.706,252.575z"/>
	<path d="M633.503,213.859h15.057v6.882c2.575-2.826,5.436-4.935,8.583-6.331c3.146-1.394,6.576-2.091,10.293-2.091
		c3.751,0,7.137,0.918,10.155,2.753c3.018,1.835,5.446,4.514,7.285,8.037c2.393-3.523,5.327-6.202,8.804-8.037
		c3.477-1.835,7.277-2.753,11.398-2.753c4.267,0,8.02,0.99,11.259,2.973c3.238,1.982,5.566,4.57,6.981,7.763
		c1.417,3.193,2.126,8.388,2.126,15.581v35.125h-15.167v-30.39c0-6.791-0.846-11.388-2.538-13.792
		c-1.691-2.404-4.228-3.606-7.611-3.606c-2.574,0-4.88,0.734-6.922,2.202c-2.041,1.468-3.557,3.496-4.549,6.083
		c-0.994,2.588-1.49,6.745-1.49,12.471v27.032H672v-29.014c0-5.359-0.395-9.24-1.187-11.645c-0.793-2.402-1.982-4.192-3.567-5.367
		c-1.585-1.175-3.502-1.762-5.75-1.762c-2.505,0-4.781,0.742-6.827,2.229c-2.045,1.486-3.574,3.57-4.587,6.249
		c-1.014,2.68-1.521,6.901-1.521,12.663v26.646h-15.057V213.859z"/>
	<path d="M733.127,213.859h15.387l15.586,37.586l17.2-37.586h15.431l-37.582,81.813h-15.551l12.339-26.382L733.127,213.859z"/>
</g>
<path stroke="#000000" stroke-width="0.25" stroke-miterlimit="10" d="M432.843,190.666h8.242c0,0-1.434-21.031,31.08-21.558
	v-11.504c0,0-28.92,0.55-35.025,17.233c0,0-12.405-20.649-35.75-17.233v11.7C401.39,169.304,428.17,168.929,432.843,190.666z"/>
<g>
	<path d="M808.835,177.854v-13.97h-4.99v-2.843h13.361v2.843h-4.977v13.97H808.835z"/>
	<path d="M819.351,177.854v-16.813h5.082l3.05,11.469l3.017-11.469h5.092v16.813h-3.155V164.62l-3.337,13.235h-3.269l-3.325-13.235
		v13.235H819.351z"/>
</g>
<g>
	<path fill="#414042" d="M46.892,341.104c-0.242-5.309-0.545-11.716-0.484-17.269h-0.182c-1.333,5.003-3.028,10.557-4.845,15.743
		l-5.935,17.817h-5.753l-5.451-17.573c-1.574-5.248-3.028-10.862-4.118-15.987h-0.121c-0.182,5.369-0.424,11.898-0.727,17.513
		l-0.909,16.536h-6.964l2.725-41.127h9.811l5.33,16.536c1.454,4.82,2.725,9.702,3.755,14.278h0.182
		c1.09-4.454,2.483-9.519,4.058-14.34l5.632-16.475h9.69l2.362,41.127h-7.268L46.892,341.104z"/>
	<path fill="#414042" d="M79.049,357.885l-0.485-3.295h-0.182c-1.817,2.318-4.905,3.966-8.721,3.966
		c-5.935,0-9.266-4.332-9.266-8.848c0-7.505,6.601-11.289,17.502-11.228v-0.488c0-1.952-0.787-5.187-5.996-5.187
		c-2.907,0-5.935,0.915-7.934,2.196l-1.454-4.881c2.18-1.343,5.996-2.624,10.659-2.624c9.447,0,12.173,6.041,12.173,12.509v10.739
		c0,2.686,0.121,5.309,0.424,7.14H79.049z M78.08,343.362c-5.269-0.122-10.295,1.037-10.295,5.553c0,2.929,1.877,4.271,4.239,4.271
		c2.968,0,5.148-1.953,5.814-4.089c0.182-0.549,0.242-1.159,0.242-1.647V343.362z"/>
	<path fill="#414042" d="M93.22,314.561h7.51v43.324h-7.51V314.561z"/>
	<path fill="#414042" d="M125.378,357.885l-0.485-3.295h-0.182c-1.817,2.318-4.905,3.966-8.721,3.966
		c-5.935,0-9.266-4.332-9.266-8.848c0-7.505,6.601-11.289,17.502-11.228v-0.488c0-1.952-0.787-5.187-5.996-5.187
		c-2.907,0-5.935,0.915-7.934,2.196l-1.454-4.881c2.18-1.343,5.996-2.624,10.659-2.624c9.447,0,12.173,6.041,12.173,12.509v10.739
		c0,2.686,0.121,5.309,0.424,7.14H125.378z M124.409,343.362c-5.269-0.122-10.295,1.037-10.295,5.553
		c0,2.929,1.877,4.271,4.239,4.271c2.968,0,5.148-1.953,5.814-4.089c0.182-0.549,0.242-1.159,0.242-1.647V343.362z"/>
	<path fill="#414042" d="M143.607,328.168l5.33,15.927c0.606,1.83,1.211,4.088,1.635,5.797h0.182
		c0.484-1.709,1.03-3.905,1.575-5.858l4.603-15.865h7.994l-7.388,20.259c-4.058,11.105-6.783,16.048-10.296,19.1
		c-2.907,2.623-5.935,3.6-7.813,3.844l-1.696-6.346c1.272-0.306,2.847-0.977,4.361-2.075c1.393-0.915,3.028-2.685,4.058-4.698
		c0.303-0.549,0.484-0.977,0.484-1.343c0-0.305-0.061-0.732-0.424-1.464l-10.78-27.276H143.607z"/>
	<path fill="#414042" d="M168.135,350.989c1.696,1.038,4.905,2.136,7.57,2.136c3.27,0,4.724-1.342,4.724-3.295
		c0-2.014-1.211-3.051-4.845-4.332c-5.753-2.014-8.176-5.188-8.115-8.665c0-5.248,4.3-9.336,11.143-9.336
		c3.271,0,6.117,0.854,7.813,1.77l-1.453,5.309c-1.272-0.732-3.634-1.709-6.238-1.709c-2.665,0-4.118,1.282-4.118,3.112
		c0,1.892,1.393,2.807,5.148,4.149c5.33,1.953,7.813,4.698,7.873,9.092c0,5.37-4.179,9.275-11.991,9.275
		c-3.573,0-6.783-0.854-8.963-2.075L168.135,350.989z"/>
	<path fill="#414042" d="M201.686,319.869c0,2.258-1.635,4.027-4.239,4.027c-2.483,0-4.118-1.77-4.118-4.027
		c0-2.318,1.696-4.088,4.179-4.088C200.05,315.781,201.625,317.551,201.686,319.869z M193.752,357.885v-29.717h7.51v29.717H193.752z
		"/>
	<path fill="#414042" d="M225.85,357.885l-0.485-3.295h-0.182c-1.817,2.318-4.905,3.966-8.721,3.966
		c-5.935,0-9.266-4.332-9.266-8.848c0-7.505,6.601-11.289,17.502-11.228v-0.488c0-1.952-0.787-5.187-5.996-5.187
		c-2.907,0-5.935,0.915-7.934,2.196l-1.454-4.881c2.18-1.343,5.996-2.624,10.659-2.624c9.447,0,12.173,6.041,12.173,12.509v10.739
		c0,2.686,0.121,5.309,0.424,7.14H225.85z M224.881,343.362c-5.269-0.122-10.295,1.037-10.295,5.553
		c0,2.929,1.877,4.271,4.239,4.271c2.968,0,5.148-1.953,5.814-4.089c0.182-0.549,0.242-1.159,0.242-1.647V343.362z"/>
	<path fill="#414042" d="M247.168,316.086c-1.635,5.553-4.24,11.838-6.541,15.621l-4.542,0.428
		c1.575-4.455,3.149-10.557,3.876-15.499L247.168,316.086z"/>
	<path fill="#414042" d="M247.168,350.989c1.696,1.038,4.905,2.136,7.57,2.136c3.27,0,4.724-1.342,4.724-3.295
		c0-2.014-1.211-3.051-4.845-4.332c-5.753-2.014-8.176-5.188-8.115-8.665c0-5.248,4.3-9.336,11.143-9.336
		c3.271,0,6.117,0.854,7.813,1.77l-1.453,5.309c-1.272-0.732-3.634-1.709-6.238-1.709c-2.665,0-4.118,1.282-4.118,3.112
		c0,1.892,1.393,2.807,5.148,4.149c5.33,1.953,7.813,4.698,7.873,9.092c0,5.37-4.179,9.275-11.991,9.275
		c-3.573,0-6.783-0.854-8.963-2.075L247.168,350.989z"/>
	<path fill="#414042" d="M286.956,357.885l1.575-11.35h-4.966v-4.76h5.693l1.09-7.749h-5.208v-4.699h5.875l1.575-11.105h4.542
		l-1.514,11.105h5.875l1.575-11.105h4.542l-1.514,11.105h4.905v4.699h-5.632l-1.029,7.749h5.087v4.698h-5.875l-1.514,11.411h-4.664
		l1.575-11.411h-5.814l-1.575,11.411H286.956z M299.734,341.775l1.029-7.749h-5.875l-1.03,7.749H299.734z"/>
	<path fill="#414042" d="M327.47,324.995h-0.121l-7.207,3.661l-1.272-5.675l9.569-4.76h6.238v39.663h-7.207V324.995z"/>
	<path fill="#414042" d="M367.44,345.132c0.182,5.369,4.36,7.688,9.084,7.688c3.452,0,5.936-0.488,8.176-1.343l1.09,5.187
		c-2.543,1.038-6.056,1.831-10.295,1.831c-9.569,0-15.201-5.919-15.201-15.011c0-8.238,4.966-15.987,14.414-15.987
		c9.568,0,12.718,7.933,12.718,14.462c0,1.403-0.121,2.501-0.242,3.173H367.44z M380.4,339.884c0.061-2.746-1.15-7.262-6.117-7.262
		c-4.603,0-6.541,4.211-6.843,7.262H380.4z"/>
	<path fill="#414042" d="M420.613,314.561v34.965c0,3.051,0.121,6.346,0.242,8.359h-6.662l-0.303-4.698h-0.121
		c-1.756,3.295-5.33,5.369-9.629,5.369c-7.025,0-12.597-6.041-12.597-15.193c-0.061-9.946,6.117-15.865,13.203-15.865
		c4.058,0,6.964,1.708,8.297,3.905h0.121v-16.842H420.613z M413.164,340.555c0-0.609-0.061-1.342-0.182-1.952
		c-0.666-2.929-3.028-5.309-6.419-5.309c-4.785,0-7.449,4.271-7.449,9.824c0,5.431,2.665,9.396,7.389,9.396
		c3.028,0,5.693-2.074,6.419-5.309c0.182-0.671,0.242-1.403,0.242-2.196V340.555z"/>
	<path fill="#414042" d="M455.012,348.976c0,3.539,0.121,6.469,0.242,8.909h-6.541l-0.363-4.516h-0.121
		c-1.271,2.136-4.179,5.187-9.448,5.187c-5.39,0-10.295-3.233-10.295-12.936v-17.452h7.449v16.17c0,4.943,1.575,8.116,5.511,8.116
		c2.967,0,4.905-2.136,5.693-4.027c0.242-0.671,0.424-1.465,0.424-2.318v-17.94h7.449V348.976z"/>
	<path fill="#414042" d="M484.746,356.97c-1.575,0.732-4.663,1.525-8.357,1.525c-9.206,0-15.201-5.919-15.201-15.133
		c0-8.909,6.056-15.865,16.413-15.865c2.725,0,5.511,0.61,7.207,1.403l-1.332,5.613c-1.211-0.549-2.968-1.159-5.632-1.159
		c-5.693,0-9.084,4.211-9.024,9.642c0,6.102,3.937,9.58,9.024,9.58c2.604,0,4.421-0.549,5.875-1.159L484.746,356.97z"/>
	<path fill="#414042" d="M506.851,357.885l-0.485-3.295h-0.182c-1.817,2.318-4.905,3.966-8.721,3.966
		c-5.935,0-9.266-4.332-9.266-8.848c0-7.505,6.601-11.289,17.502-11.228v-0.488c0-1.952-0.787-5.187-5.996-5.187
		c-2.907,0-5.935,0.915-7.934,2.196l-1.454-4.881c2.18-1.343,5.996-2.624,10.659-2.624c9.447,0,12.173,6.041,12.173,12.509v10.739
		c0,2.686,0.121,5.309,0.424,7.14H506.851z M505.882,343.362c-5.269-0.122-10.295,1.037-10.295,5.553
		c0,2.929,1.877,4.271,4.239,4.271c2.968,0,5.148-1.953,5.814-4.089c0.182-0.549,0.242-1.159,0.242-1.647V343.362z"/>
	<path fill="#414042" d="M529.198,319.687v8.481h7.086v5.614h-7.086v13.119c0,3.6,0.969,5.491,3.815,5.491
		c1.272,0,2.241-0.183,2.907-0.365l0.121,5.735c-1.09,0.427-3.028,0.732-5.39,0.732c-2.725,0-5.026-0.915-6.419-2.441
		c-1.575-1.708-2.301-4.393-2.301-8.298v-13.974h-4.239v-5.614h4.239v-6.712L529.198,319.687z"/>
	<path fill="#414042" d="M549.849,319.869c0,2.258-1.635,4.027-4.239,4.027c-2.483,0-4.118-1.77-4.118-4.027
		c0-2.318,1.696-4.088,4.179-4.088C548.214,315.781,549.789,317.551,549.849,319.869z M541.916,357.885v-29.717h7.51v29.717H541.916
		z"/>
	<path fill="#414042" d="M585.459,342.752c0,10.923-7.631,15.804-15.141,15.804c-8.358,0-14.777-5.797-14.777-15.315
		c0-9.764,6.359-15.743,15.262-15.743C579.585,327.497,585.459,333.721,585.459,342.752z M563.233,343.057
		c0,5.736,2.786,10.068,7.328,10.068c4.239,0,7.207-4.21,7.207-10.19c0-4.637-2.059-9.946-7.146-9.946
		C565.353,332.988,563.233,338.114,563.233,343.057z"/>
	<path fill="#414042" d="M591.576,337.016c0-3.417-0.061-6.285-0.242-8.848h6.541l0.363,4.454h0.182
		c1.271-2.318,4.481-5.125,9.387-5.125c5.148,0,10.478,3.355,10.478,12.753v17.635h-7.449v-16.78c0-4.271-1.575-7.506-5.632-7.506
		c-2.967,0-5.026,2.136-5.814,4.394c-0.242,0.671-0.303,1.587-0.303,2.44v17.452h-7.51V337.016z"/>
	<path fill="#414042" d="M638.389,350.989c1.696,1.038,4.905,2.136,7.57,2.136c3.27,0,4.724-1.342,4.724-3.295
		c0-2.014-1.211-3.051-4.845-4.332c-5.753-2.014-8.176-5.188-8.115-8.665c0-5.248,4.3-9.336,11.143-9.336
		c3.271,0,6.117,0.854,7.813,1.77l-1.453,5.309c-1.272-0.732-3.634-1.709-6.238-1.709c-2.665,0-4.118,1.282-4.118,3.112
		c0,1.892,1.393,2.807,5.148,4.149c5.33,1.953,7.813,4.698,7.873,9.092c0,5.37-4.179,9.275-11.991,9.275
		c-3.573,0-6.783-0.854-8.963-2.075L638.389,350.989z"/>
	<path fill="#414042" d="M669.275,345.132c0.182,5.369,4.36,7.688,9.084,7.688c3.452,0,5.936-0.488,8.176-1.343l1.09,5.187
		c-2.543,1.038-6.056,1.831-10.295,1.831c-9.569,0-15.201-5.919-15.201-15.011c0-8.238,4.966-15.987,14.414-15.987
		c9.568,0,12.718,7.933,12.718,14.462c0,1.403-0.121,2.501-0.242,3.173H669.275z M682.235,339.884
		c0.061-2.746-1.15-7.262-6.117-7.262c-4.603,0-6.541,4.211-6.843,7.262H682.235z"/>
	<path fill="#414042" d="M711.849,357.885l-0.485-3.295h-0.182c-1.817,2.318-4.905,3.966-8.721,3.966
		c-5.935,0-9.266-4.332-9.266-8.848c0-7.505,6.601-11.289,17.502-11.228v-0.488c0-1.952-0.787-5.187-5.996-5.187
		c-2.907,0-5.935,0.915-7.934,2.196l-1.454-4.881c2.18-1.343,5.996-2.624,10.659-2.624c9.447,0,12.173,6.041,12.173,12.509v10.739
		c0,2.686,0.121,5.309,0.424,7.14H711.849z M710.88,343.362c-5.269-0.122-10.295,1.037-10.295,5.553
		c0,2.929,1.877,4.271,4.239,4.271c2.968,0,5.148-1.953,5.814-4.089c0.182-0.549,0.242-1.159,0.242-1.647V343.362z"/>
	<path fill="#414042" d="M726.02,337.748c0-4.027-0.061-6.896-0.242-9.58h6.48l0.242,5.675h0.243
		c1.453-4.21,4.905-6.346,8.055-6.346c0.727,0,1.15,0.061,1.756,0.183v7.078c-0.606-0.122-1.272-0.244-2.181-0.244
		c-3.573,0-5.996,2.319-6.662,5.676c-0.121,0.671-0.242,1.464-0.242,2.318v15.377h-7.449V337.748z"/>
	<path fill="#414042" d="M768.716,356.97c-1.575,0.732-4.663,1.525-8.357,1.525c-9.206,0-15.201-5.919-15.201-15.133
		c0-8.909,6.056-15.865,16.413-15.865c2.725,0,5.511,0.61,7.207,1.403l-1.332,5.613c-1.211-0.549-2.968-1.159-5.632-1.159
		c-5.693,0-9.084,4.211-9.024,9.642c0,6.102,3.937,9.58,9.024,9.58c2.604,0,4.421-0.549,5.875-1.159L768.716,356.97z"/>
	<path fill="#414042" d="M774.227,314.561h7.51v17.696h0.121c0.908-1.404,2.12-2.563,3.694-3.418
		c1.454-0.854,3.21-1.342,5.087-1.342c5.026,0,10.295,3.355,10.295,12.875v17.513h-7.449v-16.658c0-4.333-1.575-7.566-5.693-7.566
		c-2.907,0-4.966,1.952-5.753,4.21c-0.242,0.61-0.303,1.403-0.303,2.258v17.757h-7.51V314.561z"/>
</g>
</svg>
