<?xml version="1.0" encoding="utf-8"?>
<!-- Generator: Adobe Illustrator 16.0.0, SVG Export Plug-In . SVG Version: 6.00 Build 0)  -->
<!DOCTYPE svg PUBLIC "-//W3C//DTD SVG 1.1//EN" "http://www.w3.org/Graphics/SVG/1.1/DTD/svg11.dtd">
<svg version="1.1" id="Layer_1" xmlns="http://www.w3.org/2000/svg" xmlns:xlink="http://www.w3.org/1999/xlink" x="0px" y="0px"
	 width="576px" height="681px" viewBox="0 0 576 681" enable-background="new 0 0 576 681" xml:space="preserve">
<g opacity="0.2">
	<path fill="#EB2227" d="M135.2,251.95h88.091V418.9c0,32.496,2.239,55.068,6.717,67.703c4.478,12.641,11.679,22.463,21.599,29.471
		c9.914,7.01,22.127,10.515,36.634,10.515c14.502,0,26.82-3.448,36.955-10.354c10.134-6.9,17.648-17.046,22.556-30.428
		c3.626-9.979,5.441-31.327,5.441-64.039V251.95h87.133v146.878c0,60.535-4.788,101.952-14.364,124.256
		c-11.704,27.188-28.938,48.059-51.705,62.604c-22.77,14.546-51.705,21.827-86.813,21.827c-38.091,0-68.891-8.499-92.399-25.488
		c-23.515-16.993-40.057-40.672-49.631-71.05c-6.812-21.029-10.213-59.262-10.213-114.699L135.2,251.95L135.2,251.95z"/>
	<path d="M272.292,216.846h35.302c0,0-6.164-90.159,133.206-92.426V75.116c0,0-123.969,2.372-150.084,73.87
		c0,0-53.2-88.488-153.256-73.87v50.161C137.46,125.276,252.224,123.69,272.292,216.846z"/>
</g>
</svg>
