<?xml version="1.0" encoding="utf-8"?>
<!-- Generator: Adobe Illustrator 16.0.0, SVG Export Plug-In . SVG Version: 6.00 Build 0)  -->
<!DOCTYPE svg PUBLIC "-//W3C//DTD SVG 1.1//EN" "http://www.w3.org/Graphics/SVG/1.1/DTD/svg11.dtd">
<svg version="1.1" id="Layer_1" xmlns="http://www.w3.org/2000/svg" xmlns:xlink="http://www.w3.org/1999/xlink" x="0px" y="0px"
	 width="841.89px" height="595.28px" viewBox="0 0 841.89 595.28" enable-background="new 0 0 841.89 595.28" xml:space="preserve">
<g>
	<g>
		<g>
			<path d="M135.006,256.788H78.277c0.818,4.995,3.008,8.966,6.565,11.913c3.558,2.95,8.096,4.424,13.616,4.424
				c6.598,0,12.268-2.303,17.012-6.91l14.877,6.975c-3.709,5.252-8.15,9.136-13.325,11.654c-5.175,2.519-11.32,3.778-18.436,3.778
				c-11.04,0-20.031-3.476-26.974-10.429c-6.943-6.952-10.414-15.659-10.414-26.119c0-10.719,3.46-19.619,10.382-26.7
				c6.921-7.081,15.599-10.622,26.036-10.622c11.082,0,20.095,3.542,27.039,10.622c6.942,7.082,10.414,16.433,10.414,28.055
				L135.006,256.788z M117.347,242.905c-1.167-3.916-3.467-7.102-6.901-9.556c-3.434-2.454-7.418-3.681-11.955-3.681
				c-4.924,0-9.244,1.378-12.958,4.133c-2.333,1.722-4.493,4.757-6.479,9.104H117.347z"/>
			<path d="M201.244,189.44h17.659v97.373h-17.659v-7.425c-3.447,3.272-6.903,5.628-10.37,7.07
				c-3.468,1.443-7.226,2.165-11.275,2.165c-9.088,0-16.949-3.52-23.583-10.558c-6.633-7.039-9.949-15.788-9.949-26.249
				c0-10.848,3.209-19.737,9.627-26.668c6.418-6.93,14.214-10.396,23.389-10.396c4.22,0,8.183,0.797,11.887,2.389
				c3.704,1.593,7.128,3.982,10.273,7.167V189.44z M182.68,231.024c-5.458,0-9.993,1.927-13.603,5.779
				c-3.61,3.853-5.415,8.792-5.415,14.819c0,6.069,1.836,11.064,5.511,14.98c3.675,3.918,8.198,5.876,13.571,5.876
				c5.544,0,10.143-1.926,13.796-5.778s5.48-8.9,5.48-15.142c0-6.112-1.828-11.063-5.48-14.853
				C192.887,232.919,188.268,231.024,182.68,231.024z"/>
			<path d="M236.691,216.561h17.854v33.834c0,6.587,0.454,11.161,1.361,13.722c0.908,2.562,2.367,4.553,4.377,5.973
				c2.009,1.42,4.484,2.131,7.425,2.131c2.939,0,5.436-0.699,7.489-2.098s3.577-3.456,4.571-6.167
				c0.735-2.023,1.104-6.349,1.104-12.979v-34.417h17.659v29.767c0,12.269-0.97,20.663-2.911,25.183
				c-2.373,5.511-5.865,9.74-10.479,12.688c-4.615,2.948-10.479,4.424-17.594,4.424c-7.72,0-13.962-1.723-18.727-5.166
				c-4.765-3.444-8.118-8.243-10.059-14.4c-1.38-4.261-2.07-12.01-2.07-23.245V216.561z"/>
			<path fill="#ED1C24" d="M316.319,189.44h17.53v34.223c3.45-2.97,6.921-5.199,10.415-6.683c3.493-1.486,7.028-2.228,10.608-2.228
				c6.986,0,12.872,2.411,17.659,7.232c4.097,4.176,6.146,10.31,6.146,18.402v46.426h-17.401v-30.8
				c0-8.136-0.388-13.646-1.164-16.53c-0.776-2.883-2.103-5.037-3.979-6.457c-1.876-1.421-4.194-2.131-6.954-2.131
				c-3.58,0-6.652,1.184-9.218,3.551c-2.566,2.368-4.345,5.597-5.336,9.686c-0.518,2.11-0.776,6.931-0.776,14.463v28.217h-17.53
				V189.44z"/>
			<path fill="#ED1C24" d="M395.688,216.561h17.853v33.834c0,6.587,0.454,11.161,1.361,13.722c0.908,2.562,2.367,4.553,4.377,5.973
				c2.009,1.42,4.484,2.131,7.425,2.131c2.939,0,5.435-0.699,7.489-2.098c2.054-1.399,3.577-3.456,4.572-6.167
				c0.734-2.023,1.102-6.349,1.102-12.979v-34.417h17.659v29.767c0,12.269-0.97,20.663-2.911,25.183
				c-2.372,5.511-5.865,9.74-10.479,12.688c-4.615,2.948-10.479,4.424-17.594,4.424c-7.72,0-13.962-1.723-18.726-5.166
				c-4.766-3.444-8.119-8.243-10.059-14.4c-1.381-4.261-2.07-12.01-2.07-23.245V216.561z"/>
			<path fill="#ED1C24" d="M492.781,189.44v34.868c3.191-3.184,6.64-5.573,10.35-7.167c3.708-1.592,7.674-2.389,11.902-2.389
				c9.185,0,16.99,3.466,23.416,10.396c6.425,6.931,9.638,15.82,9.638,26.668c0,10.461-3.321,19.209-9.961,26.249
				c-6.642,7.038-14.512,10.558-23.61,10.558c-4.055,0-7.827-0.721-11.32-2.165c-3.493-1.441-6.965-3.797-10.415-7.07v7.425h-17.53
				V189.44H492.781z M511.346,231.024c-5.563,0-10.178,1.895-13.843,5.682c-3.666,3.79-5.498,8.74-5.498,14.853
				c0,6.242,1.833,11.29,5.498,15.142c3.665,3.853,8.28,5.778,13.843,5.778c5.39,0,9.93-1.958,13.616-5.876
				c3.687-3.916,5.531-8.911,5.531-14.98c0-6.027-1.811-10.966-5.434-14.819C521.437,232.951,516.865,231.024,511.346,231.024z"/>
			<path fill="#ED1C24" d="M572.345,268.411c2.802,0,5.196,0.98,7.18,2.938c1.983,1.959,2.975,4.337,2.975,7.135
				c0,2.799-0.992,5.188-2.975,7.168c-1.984,1.979-4.377,2.971-7.18,2.971c-2.804,0-5.198-0.992-7.181-2.971
				c-1.984-1.98-2.975-4.369-2.975-7.168c0-2.798,0.991-5.176,2.975-7.135C567.147,269.391,569.541,268.411,572.345,268.411z"/>
			<path d="M597.36,234.78h13.079v5.978c2.237-2.455,4.722-4.287,7.456-5.5c2.732-1.211,5.712-1.817,8.941-1.817
				c3.259,0,6.2,0.797,8.821,2.392c2.621,1.594,4.73,3.921,6.328,6.981c2.078-3.061,4.627-5.387,7.647-6.981
				s6.321-2.392,9.901-2.392c3.707,0,6.966,0.86,9.78,2.583c2.813,1.721,4.834,3.969,6.064,6.743
				c1.231,2.774,1.847,7.287,1.847,13.535v30.512H664.05v-26.398c0-5.899-0.735-9.892-2.205-11.98
				c-1.469-2.088-3.672-3.132-6.611-3.132c-2.236,0-4.24,0.638-6.013,1.913c-1.772,1.275-3.089,3.037-3.952,5.285
				c-0.863,2.248-1.294,5.858-1.294,10.833v23.481H630.8V261.61c0-4.655-0.343-8.026-1.032-10.115
				c-0.689-2.087-1.721-3.642-3.098-4.662c-1.376-1.021-3.042-1.531-4.995-1.531c-2.177,0-4.153,0.645-5.931,1.937
				c-1.777,1.291-3.105,3.101-3.985,5.428c-0.881,2.328-1.321,5.995-1.321,11v23.146H597.36V234.78z"/>
			<path d="M683.897,234.78h13.366l13.54,32.649l14.94-32.649h13.404l-32.646,71.067h-13.508l10.719-22.917L683.897,234.78z"/>
		</g>
		<g>
			<path fill="#414042" d="M93.008,360.889h-5.699l-0.865-16.357c-0.254-5.282-0.56-11.276-0.509-16.103h-0.153
				c-1.17,4.57-2.697,9.551-4.325,14.477l-5.801,17.628h-4.427l-5.343-17.272c-1.578-5.08-2.952-10.159-3.918-14.832h-0.152
				c-0.102,4.826-0.408,10.973-0.713,16.408l-0.865,16.052h-5.496l2.646-38.912h7.328l5.496,17.119
				c1.425,4.776,2.596,9.094,3.563,13.36h0.152c0.967-4.165,2.188-8.584,3.715-13.41l5.649-17.069h7.378L93.008,360.889z"/>
			<path fill="#414042" d="M119.419,354.235c0,2.387,0.051,4.824,0.407,6.653h-5.343l-0.407-3.25h-0.153
				c-1.578,2.185-4.326,3.81-7.837,3.81c-5.241,0-8.243-3.862-8.243-8.179c0-6.959,6.055-10.414,15.673-10.414
				c0-2.082,0-6.248-5.648-6.248c-2.494,0-5.038,0.761-6.819,1.929l-1.221-3.911c1.984-1.269,5.292-2.337,9.058-2.337
				c8.244,0,10.534,5.436,10.534,11.38V354.235z M113.669,346.817c-4.631,0-9.974,0.864-9.974,5.843c0,3.1,1.934,4.469,4.122,4.469
				c3.206,0,5.852-2.438,5.852-5.688V346.817z"/>
			<path fill="#414042" d="M132.752,360.889h-5.903v-40.741h5.903V360.889z"/>
			<path fill="#414042" d="M159.926,354.235c0,2.387,0.051,4.824,0.408,6.653h-5.344l-0.407-3.25h-0.153
				c-1.578,2.185-4.325,3.81-7.836,3.81c-5.242,0-8.244-3.862-8.244-8.179c0-6.959,6.056-10.414,15.673-10.414
				c0-2.082,0-6.248-5.648-6.248c-2.494,0-5.038,0.761-6.819,1.929l-1.222-3.911c1.985-1.269,5.292-2.337,9.059-2.337
				c8.243,0,10.533,5.436,10.533,11.38V354.235z M154.176,346.817c-4.63,0-9.974,0.864-9.974,5.843c0,3.1,1.934,4.469,4.122,4.469
				c3.206,0,5.852-2.438,5.852-5.688V346.817z"/>
			<path fill="#414042" d="M189.543,332.899l-6.768,19.405c-3.308,9.193-5.649,14.375-9.007,17.628
				c-2.544,2.337-5.14,3.301-6.514,3.606l-1.527-4.979c6.107-2.185,8.295-7.875,8.295-8.636c0-0.306-0.051-0.661-0.305-1.221
				l-9.618-25.805h6.463l5.089,15.747c0.56,1.829,1.12,3.962,1.526,5.589h0.153c0.407-1.627,0.967-3.71,1.476-5.589l4.529-15.747
				H189.543z"/>
			<path fill="#414042" d="M207.66,338.181c-1.12-0.711-3.053-1.573-5.343-1.573c-2.646,0-4.071,1.523-4.071,3.402
				c0,1.932,1.272,2.896,4.681,4.369c4.631,1.879,7.073,4.419,7.073,8.485c0,5.383-4.122,8.584-10.482,8.584
				c-2.952,0-5.751-0.763-7.633-1.879l1.323-4.369c1.425,0.862,4.021,1.879,6.412,1.879c3.155,0,4.682-1.523,4.682-3.656
				c0-2.135-1.17-3.303-4.529-4.727c-4.987-1.98-7.175-4.774-7.175-8.025c0-4.675,3.816-8.383,9.72-8.383
				c2.748,0,5.14,0.763,6.666,1.626L207.66,338.181z"/>
			<path fill="#414042" d="M218.703,328.58c-2.035,0-3.409-1.523-3.409-3.402c0-1.98,1.425-3.454,3.46-3.454
				c2.035,0,3.409,1.474,3.409,3.454C222.163,327.057,220.84,328.58,218.703,328.58z M221.654,360.889h-5.903v-28.041h5.903V360.889
				z"/>
			<path fill="#414042" d="M248.88,354.235c0,2.387,0.051,4.824,0.407,6.653h-5.344l-0.407-3.25h-0.153
				c-1.578,2.185-4.325,3.81-7.836,3.81c-5.242,0-8.244-3.862-8.244-8.179c0-6.959,6.056-10.414,15.673-10.414
				c0-2.082,0-6.248-5.648-6.248c-2.493,0-5.038,0.761-6.819,1.929l-1.222-3.911c1.985-1.269,5.292-2.337,9.059-2.337
				c8.244,0,10.534,5.436,10.534,11.38V354.235z M243.129,346.817c-4.63,0-9.974,0.864-9.974,5.843c0,3.1,1.934,4.469,4.122,4.469
				c3.206,0,5.852-2.438,5.852-5.688V346.817z"/>
			<path fill="#414042" d="M254.173,335.539c1.374-3.81,2.9-9.549,3.562-13.918l5.801-0.559c-1.425,4.978-3.919,10.973-5.75,14.071
				L254.173,335.539z"/>
			<path fill="#414042" d="M282.517,338.181c-1.119-0.711-3.053-1.573-5.343-1.573c-2.646,0-4.071,1.523-4.071,3.402
				c0,1.932,1.272,2.896,4.682,4.369c4.63,1.879,7.073,4.419,7.073,8.485c0,5.383-4.122,8.584-10.483,8.584
				c-2.952,0-5.75-0.763-7.633-1.879l1.323-4.369c1.425,0.862,4.021,1.879,6.412,1.879c3.155,0,4.682-1.523,4.682-3.656
				c0-2.135-1.17-3.303-4.529-4.727c-4.987-1.98-7.175-4.774-7.175-8.025c0-4.675,3.816-8.383,9.719-8.383
				c2.748,0,5.14,0.763,6.667,1.626L282.517,338.181z"/>
			<path fill="#414042" d="M306.995,360.889h-3.816l1.476-11.378h-4.529v-3.658h5.139l1.069-8.484h-4.783v-3.656h5.292l1.475-11.074
				h3.766l-1.476,11.074h5.496l1.476-11.074h3.766l-1.476,11.074h4.529v3.656h-5.038l-1.068,8.484h4.732v3.606h-5.343l-1.425,11.43
				h-3.816l1.476-11.43h-5.445L306.995,360.889z M309.03,345.853h5.445l1.069-8.484h-5.445L309.03,345.853z"/>
			<path fill="#414042" d="M339.207,360.889v-32.867h-0.102l-6.463,3.556l-1.323-4.316l8.651-4.623h4.987v38.251H339.207z"/>
			<path fill="#414042" d="M390.553,359.771c-1.984,0.915-5.088,1.678-8.905,1.678c-8.448,0-13.333-5.639-13.333-14.174
				c0-8.33,4.682-14.986,12.621-14.986c7.888,0,11.042,6.554,11.042,13.463c0,0.965-0.051,1.777-0.152,2.49h-17.811
				c0.153,6.298,4.071,8.687,8.499,8.687c3.104,0,5.241-0.56,7.073-1.322L390.553,359.771z M386.381,344.023
				c0.051-3.353-1.323-7.518-5.852-7.518c-4.326,0-6.157,4.268-6.463,7.518H386.381z"/>
			<path fill="#414042" d="M421.087,353.423c0,2.538,0.102,5.535,0.203,7.466h-5.19l-0.305-4.369h-0.152
				c-1.476,2.846-4.529,4.929-8.499,4.929c-6.361,0-11.195-5.639-11.195-14.275c0-9.499,5.445-14.885,11.704-14.885
				c3.613,0,6.209,1.626,7.43,3.761h0.102v-15.901h5.903V353.423z M415.184,344.228c0-4.573-2.9-7.265-6.208-7.265
				c-4.529,0-7.022,4.471-7.022,10.008c0,5.485,2.442,9.701,6.921,9.701c3.816,0,6.31-3.351,6.31-7.263V344.228z"/>
			<path fill="#414042" d="M451.416,352.864c0,3.148,0.153,5.79,0.254,8.024h-5.19l-0.305-4.063h-0.153
				c-1.17,1.932-3.918,4.623-8.447,4.623c-4.835,0-9.059-2.997-9.059-11.938v-16.663h5.903v15.697c0,4.826,1.375,8.027,5.242,8.027
				c2.697,0,5.852-2.135,5.852-6.351v-17.322h5.903V352.864z"/>
			<path fill="#414042" d="M477.877,360.026c-1.323,0.609-3.969,1.422-7.226,1.422c-8.091,0-13.383-5.537-13.383-14.275
				c0-8.482,5.496-14.885,14.503-14.885c2.697,0,5.038,0.661,6.259,1.271l-1.17,4.521c-1.018-0.507-2.646-1.116-5.038-1.116
				c-5.496,0-8.55,4.471-8.55,9.956c0,6.146,3.614,9.805,8.499,9.805c2.341,0,3.969-0.559,5.292-1.118L477.877,360.026z"/>
			<path fill="#414042" d="M502.813,354.235c0,2.387,0.051,4.824,0.407,6.653h-5.343l-0.407-3.25h-0.153
				c-1.578,2.185-4.325,3.81-7.836,3.81c-5.242,0-8.244-3.862-8.244-8.179c0-6.959,6.056-10.414,15.674-10.414
				c0-2.082,0-6.248-5.648-6.248c-2.494,0-5.038,0.761-6.819,1.929l-1.221-3.911c1.985-1.269,5.292-2.337,9.058-2.337
				c8.244,0,10.534,5.436,10.534,11.38V354.235z M497.063,346.817c-4.631,0-9.974,0.864-9.974,5.843c0,3.1,1.934,4.469,4.122,4.469
				c3.206,0,5.852-2.438,5.852-5.688V346.817z"/>
			<path fill="#414042" d="M511.413,327.819l5.852-1.829v6.909h6.667v4.419h-6.667v14.174c0,3.454,1.069,5.13,3.563,5.13
				c1.17,0,1.882-0.152,2.595-0.355l0.204,4.521c-1.018,0.407-2.595,0.661-4.58,0.661c-2.341,0-4.325-0.763-5.547-2.135
				c-1.425-1.523-2.086-3.859-2.086-7.518v-14.478h-3.969v-4.419h3.969V327.819z"/>
			<path fill="#414042" d="M531.972,328.58c-2.036,0-3.41-1.523-3.41-3.402c0-1.98,1.425-3.454,3.461-3.454
				c2.035,0,3.409,1.474,3.409,3.454C535.432,327.057,534.109,328.58,531.972,328.58z M534.923,360.889h-5.903v-28.041h5.903
				V360.889z"/>
			<path fill="#414042" d="M566.678,346.666c0,10.463-6.819,14.782-13.129,14.782c-7.277,0-12.824-5.334-12.824-14.377
				c0-9.449,5.801-14.783,13.231-14.783C561.64,332.288,566.678,338.079,566.678,346.666z M553.752,336.709
				c-5.038,0-6.972,5.384-6.972,10.21c0,5.487,2.595,10.11,6.921,10.11c4.274,0,6.921-4.623,6.921-10.212
				C560.622,342.194,558.688,336.709,553.752,336.709z"/>
			<path fill="#414042" d="M595.684,360.889h-5.903v-16.407c0-3.962-1.323-7.316-5.343-7.316c-2.9,0-6.005,2.388-6.005,6.858v16.865
				h-5.903v-20.115c0-3.1-0.101-5.488-0.203-7.874h5.14l0.306,4.165h0.152c1.323-2.388,4.274-4.776,8.498-4.776
				c4.377,0,9.262,2.846,9.262,11.482V360.889z"/>
			<path fill="#414042" d="M637.922,332.899c-0.153,1.98-0.254,4.317-0.254,8.077v15.951c0,5.587-0.458,15.9-13.74,15.9
				c-3.257,0-6.667-0.713-8.854-2.033l1.323-4.572c1.73,1.017,4.427,1.98,7.582,1.98c4.58,0,7.837-2.54,7.837-8.89v-2.691h-0.102
				c-1.425,2.388-4.173,4.115-7.786,4.115c-6.616,0-11.145-5.843-11.145-13.666c0-9.499,5.75-14.783,11.857-14.783
				c4.172,0,6.514,2.135,7.684,4.369h0.102l0.254-3.758H637.922z M631.764,343.719c0-3.709-2.443-6.756-6.056-6.756
				c-4.071,0-6.92,3.86-6.92,9.854c0,5.487,2.493,9.399,6.869,9.399c3.054,0,6.107-2.337,6.107-7.011V343.719z"/>
			<path fill="#414042" d="M667.997,352.864c0,3.148,0.152,5.79,0.255,8.024h-5.191l-0.305-4.063h-0.153
				c-1.17,1.932-3.918,4.623-8.448,4.623c-4.834,0-9.058-2.997-9.058-11.938v-16.663H651v15.697c0,4.826,1.374,8.027,5.242,8.027
				c2.697,0,5.852-2.135,5.852-6.351v-17.322h5.903V352.864z"/>
			<path fill="#414042" d="M678.53,328.58c-2.035,0-3.409-1.523-3.409-3.402c0-1.98,1.425-3.454,3.46-3.454
				c2.036,0,3.41,1.474,3.41,3.454C681.991,327.057,680.667,328.58,678.53,328.58z M681.482,360.889h-5.903v-28.041h5.903V360.889z"
				/>
			<path fill="#414042" d="M712.473,353.423c0,2.538,0.103,5.535,0.204,7.466h-5.19l-0.306-4.369h-0.152
				c-1.476,2.846-4.529,4.929-8.498,4.929c-6.362,0-11.196-5.639-11.196-14.275c0-9.499,5.445-14.885,11.704-14.885
				c3.613,0,6.208,1.626,7.429,3.761h0.103v-15.901h5.902V353.423z M706.57,344.228c0-4.573-2.9-7.265-6.208-7.265
				c-4.529,0-7.023,4.471-7.023,10.008c0,5.485,2.443,9.701,6.921,9.701c3.817,0,6.31-3.351,6.31-7.263V344.228z"/>
			<path fill="#414042" d="M740.512,359.771c-1.984,0.915-5.089,1.678-8.905,1.678c-8.447,0-13.333-5.639-13.333-14.174
				c0-8.33,4.682-14.986,12.62-14.986c7.888,0,11.043,6.554,11.043,13.463c0,0.965-0.051,1.777-0.152,2.49h-17.811
				c0.152,6.298,4.071,8.687,8.498,8.687c3.104,0,5.242-0.56,7.073-1.322L740.512,359.771z M736.34,344.023
				c0.05-3.353-1.323-7.518-5.853-7.518c-4.325,0-6.157,4.268-6.463,7.518H736.34z"/>
		</g>
	</g>
	<path stroke="#000000" stroke-width="0.25" stroke-miterlimit="10" d="M423.45,214.633h7.159c0,0-1.245-18.269,26.998-18.727
		v-9.993c0,0-25.122,0.478-30.424,14.97c0,0-10.776-17.937-31.054-14.97v10.163C396.128,196.077,419.391,195.752,423.45,214.633z"/>
	<g>
		<path d="M750.055,203.505V191.37h-4.334v-2.47h11.606v2.47h-4.324v12.135H750.055z"/>
		<path d="M759.19,203.505V188.9h4.414l2.649,9.962l2.621-9.962h4.423v14.605h-2.74v-11.497l-2.899,11.497h-2.839l-2.889-11.497
			v11.497H759.19z"/>
	</g>
</g>
</svg>
